<svg xmlns="http://www.w3.org/2000/svg" viewBox="0 0 43.61 41.99"><defs><style>.cls-1{fill:#fff;}</style></defs><g id="Layer_2" data-name="Layer 2"><g id="Icons"><path class="cls-1" d="M11.2,30.17a1,1,0,0,0-1.41,0L6.71,33.25A1,1,0,0,0,7.42,35a1,1,0,0,0,.71-.29l3.07-3.07A1,1,0,0,0,11.2,30.17Z"/><path class="cls-1" d="M12.86,37.21,9.78,40.28a1,1,0,0,0,0,1.41,1,1,0,0,0,.71.3,1,1,0,0,0,.71-.3l3.07-3.07a1,1,0,0,0-1.41-1.41Z"/><path class="cls-1" d="M37.48,30.17a1,1,0,0,0-1.41,0L33,33.25a1,1,0,0,0,0,1.41,1,1,0,0,0,1.41,0l3.07-3.07A1,1,0,0,0,37.48,30.17Z"/><path class="cls-1" d="M29,37.21l-3.07,3.07a1,1,0,0,0,0,1.41,1,1,0,0,0,1.41,0l3.07-3.07A1,1,0,0,0,29,37.21Z"/><polyline class="cls-1" points="25.1 25.21 24.37 28.77 28.43 28.77 19.59 40.07 21.26 31.95 16.98 31.95 18.36 25.21"/><path class="cls-1" d="M33.61,26H7a7,7,0,0,1-.06-14A13,13,0,0,1,31.06,6.34,10,10,0,1,1,33.61,26ZM7,14A5,5,0,0,0,7,24H33.61a8,8,0,0,0,0-16,7.83,7.83,0,0,0-2.69.48l-.82.29L29.69,8A11,11,0,0,0,8.9,13v1.16l-1.14-.09A4.77,4.77,0,0,0,7,14Z"/></g></g></svg>